<mxfile host="app.diagrams.net" agent="Mozilla/5.0 (Windows NT 10.0; Win64; x64) AppleWebKit/537.36 (KHTML, like Gecko) Chrome/136.0.0.0 Safari/537.36" version="27.0.6">
  <diagram id="C5RBs43oDa-KdzZeNtuy" name="Page-1">
    <mxGraphModel dx="1489" dy="857" grid="1" gridSize="10" guides="1" tooltips="1" connect="1" arrows="1" fold="1" page="1" pageScale="1" pageWidth="827" pageHeight="1169" math="0" shadow="0">
      <root>
        <mxCell id="WIyWlLk6GJQsqaUBKTNV-0" />
        <mxCell id="WIyWlLk6GJQsqaUBKTNV-1" parent="WIyWlLk6GJQsqaUBKTNV-0" />
        <mxCell id="-ZZVdDWmdKbcRt_fQ-vt-2" value="" style="edgeStyle=orthogonalEdgeStyle;rounded=0;orthogonalLoop=1;jettySize=auto;html=1;" edge="1" parent="WIyWlLk6GJQsqaUBKTNV-1" source="-ZZVdDWmdKbcRt_fQ-vt-0" target="-ZZVdDWmdKbcRt_fQ-vt-1">
          <mxGeometry relative="1" as="geometry" />
        </mxCell>
        <mxCell id="-ZZVdDWmdKbcRt_fQ-vt-0" value="开始" style="strokeWidth=2;html=1;shape=mxgraph.flowchart.terminator;whiteSpace=wrap;" vertex="1" parent="WIyWlLk6GJQsqaUBKTNV-1">
          <mxGeometry x="280" y="50" width="100" height="60" as="geometry" />
        </mxCell>
        <mxCell id="-ZZVdDWmdKbcRt_fQ-vt-4" value="" style="edgeStyle=orthogonalEdgeStyle;rounded=0;orthogonalLoop=1;jettySize=auto;html=1;" edge="1" parent="WIyWlLk6GJQsqaUBKTNV-1" source="-ZZVdDWmdKbcRt_fQ-vt-1" target="-ZZVdDWmdKbcRt_fQ-vt-3">
          <mxGeometry relative="1" as="geometry" />
        </mxCell>
        <mxCell id="-ZZVdDWmdKbcRt_fQ-vt-1" value="把用户添加到分组中" style="whiteSpace=wrap;html=1;strokeWidth=2;" vertex="1" parent="WIyWlLk6GJQsqaUBKTNV-1">
          <mxGeometry x="270" y="190" width="120" height="60" as="geometry" />
        </mxCell>
        <mxCell id="-ZZVdDWmdKbcRt_fQ-vt-6" value="" style="edgeStyle=orthogonalEdgeStyle;rounded=0;orthogonalLoop=1;jettySize=auto;html=1;" edge="1" parent="WIyWlLk6GJQsqaUBKTNV-1" source="-ZZVdDWmdKbcRt_fQ-vt-3" target="-ZZVdDWmdKbcRt_fQ-vt-5">
          <mxGeometry relative="1" as="geometry" />
        </mxCell>
        <mxCell id="-ZZVdDWmdKbcRt_fQ-vt-10" value="" style="edgeStyle=orthogonalEdgeStyle;rounded=0;orthogonalLoop=1;jettySize=auto;html=1;entryX=0.5;entryY=0;entryDx=0;entryDy=0;entryPerimeter=0;" edge="1" parent="WIyWlLk6GJQsqaUBKTNV-1" source="-ZZVdDWmdKbcRt_fQ-vt-3" target="-ZZVdDWmdKbcRt_fQ-vt-12">
          <mxGeometry relative="1" as="geometry">
            <mxPoint x="205" y="360" as="targetPoint" />
          </mxGeometry>
        </mxCell>
        <mxCell id="-ZZVdDWmdKbcRt_fQ-vt-3" value="判断是否有权限" style="rhombus;whiteSpace=wrap;html=1;strokeWidth=2;" vertex="1" parent="WIyWlLk6GJQsqaUBKTNV-1">
          <mxGeometry x="277.5" y="320" width="105" height="80" as="geometry" />
        </mxCell>
        <mxCell id="-ZZVdDWmdKbcRt_fQ-vt-41" value="" style="edgeStyle=orthogonalEdgeStyle;rounded=0;orthogonalLoop=1;jettySize=auto;html=1;entryX=1;entryY=0.5;entryDx=0;entryDy=0;entryPerimeter=0;" edge="1" parent="WIyWlLk6GJQsqaUBKTNV-1" source="-ZZVdDWmdKbcRt_fQ-vt-5" target="-ZZVdDWmdKbcRt_fQ-vt-32">
          <mxGeometry relative="1" as="geometry">
            <mxPoint x="620" y="840" as="targetPoint" />
            <Array as="points">
              <mxPoint x="620" y="455" />
              <mxPoint x="620" y="780" />
            </Array>
          </mxGeometry>
        </mxCell>
        <mxCell id="-ZZVdDWmdKbcRt_fQ-vt-5" value="无权限修改" style="whiteSpace=wrap;html=1;strokeWidth=2;" vertex="1" parent="WIyWlLk6GJQsqaUBKTNV-1">
          <mxGeometry x="414" y="425" width="120" height="60" as="geometry" />
        </mxCell>
        <mxCell id="-ZZVdDWmdKbcRt_fQ-vt-8" value="N" style="text;html=1;align=center;verticalAlign=middle;resizable=0;points=[];autosize=1;strokeColor=none;fillColor=none;" vertex="1" parent="WIyWlLk6GJQsqaUBKTNV-1">
          <mxGeometry x="399" y="338" width="30" height="30" as="geometry" />
        </mxCell>
        <mxCell id="-ZZVdDWmdKbcRt_fQ-vt-11" value="Y" style="text;html=1;align=center;verticalAlign=middle;resizable=0;points=[];autosize=1;strokeColor=none;fillColor=none;" vertex="1" parent="WIyWlLk6GJQsqaUBKTNV-1">
          <mxGeometry x="235" y="338" width="30" height="30" as="geometry" />
        </mxCell>
        <mxCell id="-ZZVdDWmdKbcRt_fQ-vt-16" value="" style="edgeStyle=orthogonalEdgeStyle;rounded=0;orthogonalLoop=1;jettySize=auto;html=1;" edge="1" parent="WIyWlLk6GJQsqaUBKTNV-1" source="-ZZVdDWmdKbcRt_fQ-vt-12" target="-ZZVdDWmdKbcRt_fQ-vt-15">
          <mxGeometry relative="1" as="geometry">
            <Array as="points">
              <mxPoint x="60" y="455" />
              <mxPoint x="60" y="550" />
            </Array>
          </mxGeometry>
        </mxCell>
        <mxCell id="-ZZVdDWmdKbcRt_fQ-vt-20" value="" style="edgeStyle=orthogonalEdgeStyle;rounded=0;orthogonalLoop=1;jettySize=auto;html=1;" edge="1" parent="WIyWlLk6GJQsqaUBKTNV-1" source="-ZZVdDWmdKbcRt_fQ-vt-12">
          <mxGeometry relative="1" as="geometry">
            <mxPoint x="337.5" y="525" as="targetPoint" />
          </mxGeometry>
        </mxCell>
        <mxCell id="-ZZVdDWmdKbcRt_fQ-vt-21" value="Y" style="edgeLabel;html=1;align=center;verticalAlign=middle;resizable=0;points=[];" vertex="1" connectable="0" parent="-ZZVdDWmdKbcRt_fQ-vt-20">
          <mxGeometry x="-0.5813" y="2" relative="1" as="geometry">
            <mxPoint y="-13" as="offset" />
          </mxGeometry>
        </mxCell>
        <mxCell id="-ZZVdDWmdKbcRt_fQ-vt-12" value="检验分组名是否合法" style="strokeWidth=2;html=1;shape=mxgraph.flowchart.decision;whiteSpace=wrap;" vertex="1" parent="WIyWlLk6GJQsqaUBKTNV-1">
          <mxGeometry x="125" y="410" width="140" height="90" as="geometry" />
        </mxCell>
        <mxCell id="-ZZVdDWmdKbcRt_fQ-vt-36" style="edgeStyle=orthogonalEdgeStyle;rounded=0;orthogonalLoop=1;jettySize=auto;html=1;entryX=0.5;entryY=0;entryDx=0;entryDy=0;entryPerimeter=0;exitX=0.328;exitY=0.99;exitDx=0;exitDy=0;exitPerimeter=0;" edge="1" parent="WIyWlLk6GJQsqaUBKTNV-1" source="-ZZVdDWmdKbcRt_fQ-vt-15" target="-ZZVdDWmdKbcRt_fQ-vt-32">
          <mxGeometry relative="1" as="geometry">
            <mxPoint x="65" y="781.5999755859375" as="targetPoint" />
            <Array as="points">
              <mxPoint x="44" y="710" />
              <mxPoint x="320" y="710" />
            </Array>
          </mxGeometry>
        </mxCell>
        <mxCell id="-ZZVdDWmdKbcRt_fQ-vt-15" value="分组名不合法" style="whiteSpace=wrap;html=1;strokeWidth=2;" vertex="1" parent="WIyWlLk6GJQsqaUBKTNV-1">
          <mxGeometry x="5" y="510" width="120" height="60" as="geometry" />
        </mxCell>
        <mxCell id="-ZZVdDWmdKbcRt_fQ-vt-17" value="N" style="text;html=1;align=center;verticalAlign=middle;resizable=0;points=[];autosize=1;strokeColor=none;fillColor=none;" vertex="1" parent="WIyWlLk6GJQsqaUBKTNV-1">
          <mxGeometry x="85" y="425" width="30" height="30" as="geometry" />
        </mxCell>
        <mxCell id="-ZZVdDWmdKbcRt_fQ-vt-24" value="" style="edgeStyle=orthogonalEdgeStyle;rounded=0;orthogonalLoop=1;jettySize=auto;html=1;entryX=0.5;entryY=0;entryDx=0;entryDy=0;" edge="1" parent="WIyWlLk6GJQsqaUBKTNV-1" source="-ZZVdDWmdKbcRt_fQ-vt-22" target="-ZZVdDWmdKbcRt_fQ-vt-25">
          <mxGeometry relative="1" as="geometry">
            <mxPoint x="450" y="620" as="targetPoint" />
          </mxGeometry>
        </mxCell>
        <mxCell id="-ZZVdDWmdKbcRt_fQ-vt-29" value="" style="edgeStyle=orthogonalEdgeStyle;rounded=0;orthogonalLoop=1;jettySize=auto;html=1;entryX=0.5;entryY=0;entryDx=0;entryDy=0;" edge="1" parent="WIyWlLk6GJQsqaUBKTNV-1" source="-ZZVdDWmdKbcRt_fQ-vt-22" target="-ZZVdDWmdKbcRt_fQ-vt-30">
          <mxGeometry relative="1" as="geometry">
            <mxPoint x="185" y="580" as="targetPoint" />
          </mxGeometry>
        </mxCell>
        <mxCell id="-ZZVdDWmdKbcRt_fQ-vt-22" value="检验是否已经&lt;br&gt;添加了用户" style="strokeWidth=2;html=1;shape=mxgraph.flowchart.decision;whiteSpace=wrap;" vertex="1" parent="WIyWlLk6GJQsqaUBKTNV-1">
          <mxGeometry x="265" y="530" width="140" height="100" as="geometry" />
        </mxCell>
        <mxCell id="-ZZVdDWmdKbcRt_fQ-vt-35" style="edgeStyle=orthogonalEdgeStyle;rounded=0;orthogonalLoop=1;jettySize=auto;html=1;entryX=0.5;entryY=0;entryDx=0;entryDy=0;entryPerimeter=0;" edge="1" parent="WIyWlLk6GJQsqaUBKTNV-1" source="-ZZVdDWmdKbcRt_fQ-vt-25" target="-ZZVdDWmdKbcRt_fQ-vt-32">
          <mxGeometry relative="1" as="geometry">
            <mxPoint x="430" y="760" as="targetPoint" />
            <Array as="points">
              <mxPoint x="480" y="710" />
              <mxPoint x="320" y="710" />
            </Array>
          </mxGeometry>
        </mxCell>
        <mxCell id="-ZZVdDWmdKbcRt_fQ-vt-25" value="添加失败，改用户已经添加！" style="rounded=0;whiteSpace=wrap;html=1;" vertex="1" parent="WIyWlLk6GJQsqaUBKTNV-1">
          <mxGeometry x="420" y="600" width="120" height="50" as="geometry" />
        </mxCell>
        <mxCell id="-ZZVdDWmdKbcRt_fQ-vt-26" value="Y" style="text;html=1;align=center;verticalAlign=middle;resizable=0;points=[];autosize=1;strokeColor=none;fillColor=none;" vertex="1" parent="WIyWlLk6GJQsqaUBKTNV-1">
          <mxGeometry x="405" y="558" width="30" height="30" as="geometry" />
        </mxCell>
        <mxCell id="-ZZVdDWmdKbcRt_fQ-vt-33" style="edgeStyle=orthogonalEdgeStyle;rounded=0;orthogonalLoop=1;jettySize=auto;html=1;exitX=0.5;exitY=1;exitDx=0;exitDy=0;" edge="1" parent="WIyWlLk6GJQsqaUBKTNV-1" source="-ZZVdDWmdKbcRt_fQ-vt-30" target="-ZZVdDWmdKbcRt_fQ-vt-32">
          <mxGeometry relative="1" as="geometry" />
        </mxCell>
        <mxCell id="-ZZVdDWmdKbcRt_fQ-vt-30" value="添加成功" style="rounded=0;whiteSpace=wrap;html=1;" vertex="1" parent="WIyWlLk6GJQsqaUBKTNV-1">
          <mxGeometry x="130" y="620" width="120" height="60" as="geometry" />
        </mxCell>
        <mxCell id="-ZZVdDWmdKbcRt_fQ-vt-31" value="N" style="text;html=1;align=center;verticalAlign=middle;resizable=0;points=[];autosize=1;strokeColor=none;fillColor=none;" vertex="1" parent="WIyWlLk6GJQsqaUBKTNV-1">
          <mxGeometry x="230" y="550" width="30" height="30" as="geometry" />
        </mxCell>
        <mxCell id="-ZZVdDWmdKbcRt_fQ-vt-32" value="结束" style="strokeWidth=2;html=1;shape=mxgraph.flowchart.terminator;whiteSpace=wrap;" vertex="1" parent="WIyWlLk6GJQsqaUBKTNV-1">
          <mxGeometry x="270" y="750" width="100" height="60" as="geometry" />
        </mxCell>
      </root>
    </mxGraphModel>
  </diagram>
</mxfile>
